<?xml version="1.0" encoding="utf-8"?>
<!-- Generator: Adobe Illustrator 15.1.0, SVG Export Plug-In . SVG Version: 6.00 Build 0)  -->
<!DOCTYPE svg PUBLIC "-//W3C//DTD SVG 1.1//EN" "http://www.w3.org/Graphics/SVG/1.1/DTD/svg11.dtd">
<svg version="1.1"
	 id="Layer_1" xmlns:inkscape="http://www.inkscape.org/namespaces/inkscape" xmlns:rdf="http://www.w3.org/1999/02/22-rdf-syntax-ns#" xmlns:cc="http://web.resource.org/cc/" xmlns:dc="http://purl.org/dc/elements/1.1/" xmlns:sodipodi="http://sodipodi.sourceforge.net/DTD/sodipodi-0.dtd" xmlns:svg="http://www.w3.org/2000/svg" xmlns:ns1="http://sozi.baierouge.fr"
	 xmlns="http://www.w3.org/2000/svg" xmlns:xlink="http://www.w3.org/1999/xlink" x="0px" y="0px" width="285px" height="285px"
	 viewBox="266.445 52.14 285 285" enable-background="new 266.445 52.14 285 285" xml:space="preserve">
<linearGradient id="SVGID_1_" gradientUnits="userSpaceOnUse" x1="280.2795" y1="236.8308" x2="529.0309" y2="155.2647">
	<stop  offset="0.0745" style="stop-color:#F01002;stop-opacity:0.9324"/>
	<stop  offset="0.0863" style="stop-color:#FF0F00"/>
	<stop  offset="0.4745" style="stop-color:#231F20;stop-opacity:0"/>
	<stop  offset="0.6627" style="stop-color:#231F20;stop-opacity:0"/>
	<stop  offset="1" style="stop-color:#0071D0"/>
</linearGradient>
<!-- <rect fill="url(#SVGID_1_)" stroke="#FFFFFF" stroke-miterlimit="10" x="266.445" y="52.14" width="285" height="285" /> -->
<g>
	<g>
		<path fill="#000549" d="M428.691,432.725c-2.785-0.398,0.661,31.03,0.127,31.295c-0.53,0.266-5.568,4.91-6.895,5.571
			c-1.324,0.666,2.653-29.169,2.653-31.425c0-2.257-8.62,11.004-9.281,15.115c-0.662,4.108-1.727,1.092-2.92-0.533
			c-0.614-0.836,2.255-11.666,1.992-12.068c-0.267-0.399-4.774,1.593-5.305,2.391c-0.533,0.793-4.773,22.805-8.091,25.323
			c-3.317,2.52-0.53-13.788-1.589-14.319c-1.064-0.533-5.966,4.245-5.966,4.245s0.928,16.309-0.132,17.504
			c-1.061,1.192-2.785,0.793-3.446,0.263c-0.662-0.53,3.446-9.281,3.181-10.343c-0.263-1.063-0.396-2.391-1.062-1.589
			c-0.661,0.793,0.531-3.185-0.131-3.584c-0.662-0.398-2.12,0.399-2.12,0.399s-4.906,12.199-5.966,13.261
			c-1.067,1.064-7.563,1.845-8.356,4.896v0.017l89.9-1.192l-3.05-43.497c0,0-1.323-1.157-6.496,3.214
			c-5.173,4.377-0.596-3.181-0.596-3.181s-2.059-9.186-2.326-9.847c-0.259-0.652-1.805,0.494-1.85,1.164
			c0.022-0.564,0.063-3.48-0.267-3.814c-0.402-0.399-1.726-3.315-3.446,1.061c-1.727,4.377-5.042,43.36-5.042,43.36
			s0.135,8.092-0.53,8.616c-0.662,0.53-7.955-6.233-7.955-7.426c0-1.195,8.75-41.109,8.223-42.563
			C441.421,423.579,431.474,433.125,428.691,432.725z"/>
		<path fill="#000549" d="M363.18,238.352c-0.131,5.042,4.906,8.888,5.042,8.488c0.131-0.402,0.661-7.561,0.924-7.43
			c0,0,1.192,0.397,3.715,0.132c2.522-0.263,4.376-2.785,3.583-3.978c-0.797-1.191-2.123-7.561-2.123-7.561
			s-0.389-14.507-1.196-14.583v-0.004C369.02,213.02,363.313,233.309,363.18,238.352z"/>
		<path fill="#000549" d="M454.25,319.03c2.383,2.089,5.366,20.188,5.366,20.188l5.668,0.793c0,0,7.561-14.122,8.949-14.42
			c1.396-0.298,16.114-15.41,16.609-18.297c0.495-2.883-4.678-7.954-4.678-7.954l3.583-4.771l-1.589-1.887l2.585-2.09l-23.27-9.746
			l-0.398,3.776l-2.389-0.596c0,0-11.945,16.797-11.534,17.205v0.023c0.295,0.302,0.098,9.813-0.396,11.903
			C452.261,315.25,451.858,316.94,454.25,319.03z"/>
		<path fill="#000549" d="M407.735,315.648c-0.793,2.388-5.568,22.805-13.261,35.271c-7.691,12.468-9.019,19.096-9.281,23.603
			c-0.263,4.512,1.59,10.873,1.327,13.526c-0.263,2.65-7.691,11.669-7.954,16.707c-0.267,5.042,0.793,5.305,0.793,5.305
			s9.549-5.568,13.264-8.223c3.711-2.65,20.422-29.971,21.745-42.169c1.327-12.195,7.161-29.169,7.958-31.026
			c0.793-1.854,8.749-33.68,8.484-36.86c-0.266-3.181,1.062-28.11,1.062-28.11l-0.531-3.175v-0.011
			C430.81,261.016,408.533,313.26,407.735,315.648z"/>
		<path fill="#000549" d="M374.478,464.774c1.865,2.381,15.894-5.886,16.413-9.07s2.355-9.026,4.463-14.337
			c2.103-5.312,7.626-19.915,8.412-23.099c0.782-3.188,2.894-6.9,7.384-11.96c4.493-5.053,13.664-38.23,13.142-37.17l-2.908,3.988
			c-4.99,15.401-42.302,40.451-42.302,40.451v0.016c-6.335,9.029-6.022,31.949-6.081,33.635c-0.042,1.122,3.814,1.624,0.117,6.146
			c-3.697,4.518,0.284,6.099,0.284,6.099S372.614,462.393,374.478,464.774z"/>
		<path fill="#000549" d="M424.112,381.678c-1.988,4.377,0.2,16.111-9.15,28.245c-9.349,12.134-22.673,46.545-23.071,47.54
			c-0.396,0.995,1.189-2.588,4.773-5.37c3.58-2.785,5.769-6.961,12.134-13.526c6.361-6.562,21.68-8.55,23.269-12.33
			c1.596-3.777,2.388-68.024,2.388-68.024v-0.021C431.67,360.391,426.1,377.297,424.112,381.678z"/>
		<path fill="#000549" d="M464.485,395.415c1.989-2.787-10.145-57.086-11.337-65.241c-1.192-8.154-4.176-24.062-5.37-25.46
			c-1.195-1.393-1.788,11.338-3.977,11.934c-2.188,0.604-4.971,5.57-4.971,5.57v0.002c0,0.596-0.995,87.516-0.995,89.105
			S462.497,398.201,464.485,395.415z"/>
		<path fill="#000549" d="M433.86,259.954v0.007l6.168,20.081c0,0,0.399,18.104,0.399,17.307s1.389-1.195,4.573-3.78
			c3.181-2.585,5.336,5.072,5.966,3.98c0.363-0.633,2.979,10.541,0.196-6.565C448.382,273.883,433.86,259.954,433.86,259.954z"/>
		<path fill="#000549" d="M370.409,258.974c2.189,0.199,17.302-19.295,15.712-17.504c-1.589,1.788-16.11,8.354-16.11,8.354v0.004
			c0,0-1.192,2.785-1.792,2.98c-0.593,0.196-0.793,3.78-1.389,4.573C366.233,258.177,368.223,258.774,370.409,258.974z"/>
		<path fill="#000549" d="M423.516,255.973c0,0-0.028,0.045-0.08,0.13c0.044-0.059,0.073-0.104,0.08-0.124V255.973z"/>
		<path fill="#000549" d="M399.844,279.052c-6.765,4.377-15.116,15.709-17.303,20.085c-2.189,4.38-8.753,14.722-9.746,17.704
			c-0.994,2.982-1.59,6.365-1.196,8.949c0.403,2.585,1.444,4.483,2.189,5.173c0.862,0.793,4.108,1.324,5.104,0.928
			c0.997-0.402,2.653-1.326,2.653-1.326s6.563-34.613,8.354-35.008c1.788-0.398,1.59,5.77-0.6,10.346
			c-2.185,4.573-1.788,5.366-1.984,6.165c-0.2,0.796,0.396,1.589,0.396,1.589s26.058-39.58,27.448-42.959
			c1.31-3.175,7.503-13.327,8.277-14.593C422.19,257.792,406.379,274.824,399.844,279.052z"/>
		<polygon fill="#000549" points="411.581,293.57 411.581,293.568 411.579,293.573 		"/>
		<path fill="#000549" d="M377.969,360.003c0.995,0.793,4.376,0,4.972-0.399c0.597-0.399,2.984-7.158,2.984-7.158l25.654-58.873
			c-0.631,0.658-35.4,53.703-35.8,59.469C375.384,358.81,376.971,359.21,377.969,360.003z"/>
		<path fill="#000549" d="M376.178,288.603c0.794,0,1.195,0.196,1.393,0.995c0.196,0.793,0,0.995,0.398,2.186
			c0.399,1.195,1.59,3.977,1.59,3.977l5.961-21.074c-0.826,1.806-11.729,9.14-11.134,10.732
			C374.986,287.009,375.384,288.603,376.178,288.603z"/>
		<polygon fill="#000549" points="385.525,274.669 385.52,274.686 385.525,274.677 		"/>
		<path fill="#000549" d="M431.673,237.346c0.597-1.389-1.261-4.442-1.261-4.573s-1.459-5.503-1.459-5.503
			c0,0.334-5.703,12.861-5.703,12.861s0.267,6.099,0.403,6.696c0.131,0.597,2.388,0.197,2.388,0.462
			c0,0.266,0.263,4.773,0.396,4.773c0.135,0,0.73,0.728,1.523,0.069c0.797-0.665,4.512-0.403,4.512-0.403s-0.667-2.625-0.602-2.838
			v-0.007c0.065-0.197-2.322-9.146-1.989-9.349C430.215,239.334,431.073,238.739,431.673,237.346z"/>
		<path fill="#000549" d="M388.912,279.453c0.596-0.797,2.388-2.388,4.972-3.98c2.585-1.588,1.393-4.176,1.792-7.951
			c0.399-3.784,1.192-3.185,2.585-6.365c1.393-3.184,4.576-3.381,6.961-4.178c2.391-0.793,7.561-1.988,8.356-2.185
			c0.788-0.231,1.583-4.205,0.788-4.418v0.034c-0.793-0.197-2.388-1.59-4.176-3.181c-1.792-1.59-6.763-8.554-6.763-8.554
			c-1.389-3.58-6.364-6.961-5.169-5.37c1.192,1.59-0.995,21.087-1.393,22.279C396.469,256.776,388.315,280.246,388.912,279.453z"/>
		<path fill="#000549" d="M380.552,258.768c-0.796,1.401,7.956-10.732,7.956-10.732v-0.003l6.763-16.511
			c-0.197,0.793-10.342,12.73-11.538,18.696C382.542,256.184,381.345,257.376,380.552,258.768z"/>
		<path fill="#000549" d="M374.386,271.703v-0.006c-2.585,1.393-2.182,1.593-1.788,2.189c0.394,0.596,0.793,1.788,0.793,1.788
			s-0.995-0.995-1.59,1.992c-0.596,2.983-0.796,3.776-0.196,3.977c0.6,0.197,12.927-7.161,14.915-12.137
			c1.988-4.973,9.15-24.662,9.15-24.662C395.469,245.643,376.971,270.319,374.386,271.703z"/>
		<path fill="#000549" d="M403.222,202.222c-1.116,0.793-2.072,1.607-2.897,2.436l-12.858-0.207
			c-0.291-10.581-5.915-30.676-4.257-43.81c1.855-14.723-3.579-20.956-3.579-21.215c0-0.267,1.059-0.267,0.131-3.447
			c-0.933-3.181-11.937-1.593-11.937-1.593s1.195,4.245,0.533,4.38c-0.665,0.133-1.463,1.854-1.726,2.918
			c0,0,1.593,0.527,1.726,1.316c0.128,0.797,2.383,3.98,1.324,3.98c-1.06,0,0.398,3.711,1.726,3.58
			c1.327-0.135,3.843-0.928,4.241-0.793c0.403,0.128,0.271,3.711-0.259,4.376c-0.534,0.662-0.397,7.421-0.135,8.485
			c0.268,1.061-2.785,5.833-0.793,8.753c1.988,2.918,3.974-1.989,3.974-1.989c0.267,0.793,3.98,18.962,3.185,19.624
			c-0.795,0.661-2.124,4.241-3.715,4.639s-0.793,6.233,0.797,7.823c1.589,1.595,3.846,26.786,5.169,21.745
			c1.327-5.038,2.123-6.365,3.45-15.381c0.038-0.256,0.066-0.527,0.09-0.805l9.679,2.091c-0.443,0.928-0.76,1.847-0.971,2.741
			l-5.101,0.624l0.041,0.143c-1.22-1.985-2.293-3.191-2.293-3.191s0.924,5.173,0.127,10.477c-0.793,5.301-14.45,21.478-14.45,21.478
			s-0.662,1.458,4.112,0.928c4.77-0.53,13.123-5.966,15.511-15.116c1.149-4.41-0.044-8.699-1.589-11.96l3.285,0.523
			c0.197,3.883,1.884,6.667,1.884,6.667c0-0.267,4.376-5.173,5.634-4.844c1.262,0.336,7.695-2.918,8.023-2.584
			c0.334,0.333,3.05,2.519,3.05,2.519s2.654,1.262,2.654,1.524s0.131,6.631-0.201,6.692c-0.333,0.069-1.323,0.336-1.323,0.336
			s-0.465,3.312-0.928,3.181c-0.465-0.135-0.596,0.793-0.862,1.061c-0.263,0.267,2.322,2.189,2.322,2.189s0.862,2.646,0,2.716
			c-0.862,0.065-1.389,3.579-0.793,4.245c0.597,0.661,1.727,0.661,2.051,0.596c0.335-0.065,1.262,0.73,3.98-0.465
			c2.717-1.195,6.896-13.26,6.896-13.26s0.206-1.251,0.671-1.32v-0.007c0.465-0.065,3.443,0.069,2.781-1.323
			c-0.574-1.207-1.643-5.29-1.358-7.397l20.452-0.76c0,0-14.604-2.886-19.583-3.817c-0.004-0.852-0.069-1.712-0.178-2.494
			l18.297-7.346c0,0-15.712,2.585-19.753,3.191c-0.752-1.418-1.527-2.596-1.527-2.596c-0.193-0.177-0.385-0.342-0.578-0.509
			l13.373-14.007c0,0-13.668,9.503-16.855,11.644c-1.764-0.924-3.523-1.458-5.231-1.708l0.476-18.558
			c0,0.336-3.887,14.236-5.09,18.517c-2.422,0.291-4.612,1.025-6.376,1.81l-12.934-13.294l9.029,15.456
			C403.417,202.073,403.222,202.222,403.222,202.222z"/>
		<path fill="#000549" d="M365.04,132.468c0,0,9.444-4.473,16.457-0.149c0,0,4.476,1.047,7.709-3.978c0,0-0.498-2.733-7.858-3.977
			c-7.36-1.244-13.229-0.052-13.229-0.052s-6.361,1.243-8.401,3.631C357.679,130.33,365.04,132.468,365.04,132.468z"/>
		<path fill="#000549" d="M361.56,124.96c0,0,10.742-6.961,25.556-0.495c0,0,0.201-4.13,1.146-4.476s-13.479-5.918-27.101-0.399
			C361.162,119.587,363.102,122.025,361.56,124.96z"/>
		<path fill="#000549" d="M369.808,112.163l-0.013-0.017c0.003,0.008,1.067,0.552,1.341,0.714c2.239,1.66,8.99-0.697,8.99-0.697
			s9.192-5.075,7.819-17.009s0.108,3.624-3.896,6.939c-0.375-1.716-0.884-3.133-1.883-5.129c-0.476-0.948-0.891-1.732-1.243-2.446
			c0.101-0.113,0.2-0.225,0.302-0.326c1.78-1.784,10.553-9.331,1.988-29.695c0,0,1.232,14.402-1.854,16.87
			c-3.087,2.471-16.667,8.232-16.253,19.753C365.52,112.639,367.303,110.488,369.808,112.163z"/>
		<rect x="357.302" y="500.466" fill="#000549" width="121.124" height="20.291"/>
		<rect x="351.336" y="526.117" fill="#000549" width="140.219" height="21.48"/>
	</g>
</g>
</svg>
